<svg width="44" height="40" viewBox="0 0 44 40" fill="none" xmlns="http://www.w3.org/2000/svg">
<g id="Group 24">
<path id="Path" d="M11.0706 0C8.35232 0 6.14042 2.19173 6.14042 4.87553L5.96118 30.1542L8.65038 30.1734L8.8297 4.8854C8.8297 3.67435 9.83502 2.6892 11.0707 2.6892H38.0974V0H11.0706Z" fill="#9EABB2"/>
<path id="Shape" fill-rule="evenodd" clip-rule="evenodd" d="M32.9877 5.10954C32.9877 2.29207 35.2798 0 38.0972 0C40.9147 0 43.2068 2.29207 43.2068 5.10945V11.1154C43.2068 11.8581 42.6048 12.46 41.8621 12.46H35.6769V33.4807C35.6769 37.0148 32.8017 39.89 29.2676 39.89C25.7335 39.89 22.8583 37.0148 22.8583 33.4807V31.5534H2.6892V33.4808C2.6892 35.5317 4.35789 37.2008 6.40928 37.2008V39.89C2.87519 39.89 0 37.0149 0 33.4808V30.2089C0 29.4662 0.601941 28.8642 1.34464 28.8642H24.2029C24.9456 28.8642 25.5475 29.4662 25.5475 30.2089V33.4808C25.5475 35.5317 27.2166 37.2008 29.2676 37.2008C31.3186 37.2008 32.9877 35.5317 32.9877 33.4808V5.10954ZM35.677 5.10945V9.7708H40.5175V5.10945C40.5175 3.77477 39.4315 2.6892 38.0972 2.6892C36.763 2.6892 35.677 3.77468 35.677 5.10945Z" fill="#9EABB2"/>
<rect id="Rectangle" x="6.14035" y="37.2007" width="22.8131" height="2.6892" fill="#9EABB2"/>
<path id="Path_2" d="M19.9899 7.48486H13.0427C12.3 7.48486 11.6981 8.0868 11.6981 8.8295C11.6981 9.57221 12.3 10.1741 13.0427 10.1741H19.9899C20.7326 10.1741 21.3345 9.57221 21.3345 8.8295C21.3345 8.0868 20.7325 7.48486 19.9899 7.48486Z" fill="#9EABB2"/>
<path id="Path_3" d="M28.0575 12.8633H13.0427C12.3 12.8633 11.6981 13.4652 11.6981 14.2079C11.6981 14.9506 12.3 15.5526 13.0427 15.5526H28.0575C28.8002 15.5526 29.4021 14.9506 29.4021 14.2079C29.4021 13.4652 28.8002 12.8633 28.0575 12.8633Z" fill="#9EABB2"/>
<path id="Path_4" d="M28.0575 18.2417H13.0427C12.3 18.2417 11.6981 18.8436 11.6981 19.5863C11.6981 20.329 12.3 20.931 13.0427 20.931H28.0575C28.8002 20.931 29.4021 20.3295 29.4021 19.5863C29.4021 18.8436 28.8002 18.2417 28.0575 18.2417Z" fill="#9EABB2"/>
<path id="Path_5" d="M28.0575 23.6204H13.0427C12.3 23.6204 11.6981 24.2223 11.6981 24.965C11.6981 25.7077 12.3 26.3096 13.0427 26.3096H28.0575C28.8002 26.3096 29.4021 25.7077 29.4021 24.965C29.4021 24.2223 28.8002 23.6204 28.0575 23.6204Z" fill="#9EABB2"/>
</g>
</svg>
