<svg width="36" height="32" viewBox="0 0 36 32" fill="none" xmlns="http://www.w3.org/2000/svg">
<g id="Combined Shape 2">
<path id="Combined Shape" d="M35.04 0V3.2002H31.8398V28.7998H35.04V32H25.4404V28.7998H28.6396V3.2002H25.4404V0H35.04ZM14.2988 6.41113C14.7854 7.47329 15.2673 8.52543 15.7441 9.61621C16.4481 11.2268 17.1576 12.9445 17.8721 14.7363C18.5864 16.528 19.3168 18.4531 20.0635 20.4795C20.8102 22.5062 21.5996 24.7201 22.4316 27.1201H17.0879C16.8529 26.3202 16.5914 25.5625 16.3037 24.752C16.0726 24.1011 15.8445 23.443 15.6201 22.7949C15.5651 22.6361 15.5106 22.4777 15.4561 22.3203H6.81543C6.76164 22.4755 6.7075 22.6316 6.65332 22.7881C6.42818 23.4384 6.19967 24.0988 5.96777 24.752C5.68004 25.5625 5.41862 26.3202 5.18359 27.1201H0C0.832 24.7201 1.62087 22.5024 2.36719 20.4756C3.11366 18.449 3.8447 16.5195 4.55957 14.7275C5.27437 12.9358 5.97859 11.2268 6.67188 9.61621C7.28808 8.1848 7.92563 6.82005 8.58398 5.41113C8.66635 5.23488 8.74901 5.05777 8.83203 4.87988H13.5996C13.8337 5.39625 14.067 5.90498 14.2988 6.41113ZM11.1035 9.93555C10.9967 10.2559 10.8362 10.6935 10.623 11.248C10.4099 11.8027 10.165 12.4428 9.8877 13.168C9.61037 13.8931 9.30625 14.6929 8.97559 15.5674C8.6448 16.4421 8.30888 17.3603 7.96777 18.3203H14.2715C13.9304 17.3603 13.5993 16.4421 13.2793 15.5674C12.9594 14.693 12.6562 13.8931 12.3682 13.168C12.0801 12.4429 11.8294 11.8027 11.6162 11.248C11.403 10.6935 11.2318 10.2559 11.1035 9.93555Z" fill="#9EABB2"/>
</g>
</svg>
